<?xml version="1.0" standalone="no"?>
<!DOCTYPE svg PUBLIC "-//W3C//DTD SVG 20010904//EN"
 "http://www.w3.org/TR/2001/REC-SVG-20010904/DTD/svg10.dtd">
<svg version="1.0" xmlns="http://www.w3.org/2000/svg"
 width="16.000000pt" height="16.000000pt" viewBox="0 0 16.000000 16.000000"
 preserveAspectRatio="xMidYMid meet">
<metadata>
Created by potrace 1.11, written by Peter Selinger 2001-2013
</metadata>
<g transform="translate(0.000000,16.000000) scale(0.012500,-0.012500)"
fill="#000000" stroke="none">
<path d="M509 1122 c-214 -56 -371 -264 -368 -490 2 -234 180 -442 412 -482
361 -63 661 265 569 621 -69 262 -345 420 -613 351z m219 -32 c224 -46 376
-240 368 -469 -7 -188 -125 -349 -302 -413 -160 -58 -356 -15 -472 103 -188
190 -187 480 3 658 117 109 256 150 403 121z"/>
<path d="M360 841 c-38 -19 -80 -73 -80 -101 0 -28 42 -82 80 -101 67 -36 153
-17 201 45 42 53 21 113 -52 155 -45 26 -103 27 -149 2z m84 -77 c-1 -31 2
-67 7 -80 7 -21 5 -24 -12 -24 -33 0 -85 29 -99 55 -17 32 0 68 44 89 56 28
63 23 60 -40z"/>
<path d="M780 841 c-38 -19 -80 -73 -80 -101 0 -28 42 -82 80 -101 46 -25 104
-24 149 2 71 40 93 100 55 152 -46 62 -137 84 -204 48z m84 -65 c-4 -25 -2
-58 4 -75 13 -36 5 -43 -37 -35 -35 7 -81 49 -81 73 1 24 36 62 67 71 51 15
53 13 47 -34z"/>
<path d="M616 624 c-9 -8 -16 -24 -16 -34 0 -43 54 -65 84 -34 20 20 20 48 0
68 -8 9 -24 16 -34 16 -10 0 -26 -7 -34 -16z"/>
<path d="M447 568 c-2 -7 -1 -24 3 -38 10 -35 -5 -68 -40 -88 -30 -17 -38 -36
-20 -47 11 -7 61 17 79 39 11 13 17 12 48 -10 77 -52 177 -56 259 -10 l45 25
36 -25 c40 -27 49 -29 58 -13 4 5 -11 27 -33 47 -39 36 -44 50 -32 97 11 46
-25 47 -40 1 -6 -18 -10 -38 -9 -42 4 -22 -4 -32 -40 -52 -51 -29 -121 -38
-163 -22 -52 20 -98 54 -98 71 0 52 -40 102 -53 67z"/>
</g>
</svg>
