<svg width="48" height="50" viewBox="0 0 48 50" fill="none" xmlns="http://www.w3.org/2000/svg">
<path d="M23.024 31.846C23.024 30.9393 23.1033 30.146 23.262 29.466C23.4207 28.7633 23.636 28.14 23.908 27.596C24.18 27.052 24.4973 26.5647 24.86 26.134C25.2227 25.6807 25.608 25.2613 26.016 24.876C26.424 24.4907 26.832 24.094 27.24 23.686C27.648 23.2553 28.0107 22.8133 28.328 22.36C28.6453 21.9067 28.8947 21.4193 29.076 20.898C29.28 20.3767 29.382 19.8213 29.382 19.232C29.382 18.3933 29.2233 17.6793 28.906 17.09C28.6113 16.478 28.2033 15.9793 27.682 15.594C27.1833 15.186 26.6053 14.8913 25.948 14.71C25.2907 14.5287 24.6107 14.438 23.908 14.438C22.888 14.438 21.9927 14.608 21.222 14.948C20.4513 15.288 19.8053 15.764 19.284 16.376C18.7853 16.988 18.4 17.7133 18.128 18.552C17.8787 19.368 17.754 20.2633 17.754 21.238H16.462C16.462 20.0367 16.6207 18.9373 16.938 17.94C17.278 16.9427 17.7653 16.0927 18.4 15.39C19.0347 14.6647 19.8167 14.1093 20.746 13.724C21.698 13.3387 22.786 13.146 24.01 13.146C24.9167 13.146 25.7667 13.2707 26.56 13.52C27.376 13.7693 28.09 14.1433 28.702 14.642C29.314 15.1407 29.79 15.7753 30.13 16.546C30.4927 17.3167 30.674 18.212 30.674 19.232C30.674 19.9573 30.5833 20.6033 30.402 21.17C30.2433 21.714 30.0167 22.2127 29.722 22.666C29.45 23.1193 29.1327 23.5387 28.77 23.924C28.4073 24.2867 28.0333 24.6493 27.648 25.012C27.2627 25.352 26.866 25.7147 26.458 26.1C26.0727 26.4627 25.7213 26.9047 25.404 27.426C25.0867 27.9473 24.826 28.5707 24.622 29.296C24.418 29.9987 24.316 30.8487 24.316 31.846H23.024ZM22.854 34.498H24.588V38H22.854V34.498Z" fill="white"/>
<circle cx="24" cy="25" r="23.5" stroke="white"/>
</svg>
