<svg width="24" height="21" viewBox="0 0 24 21" fill="none" xmlns="http://www.w3.org/2000/svg">
<path d="M7.78651 0.189649C7.81654 -0.0632164 8.18346 -0.0632164 8.21349 0.189649L8.4652 2.31096C8.79021 5.05015 10.9499 7.20979 13.689 7.53481L15.8103 7.78651C16.0632 7.81654 16.0632 8.18346 15.8103 8.21349L13.689 8.4652C10.9499 8.79021 8.79021 10.9499 8.4652 13.689L8.21349 15.8103C8.18346 16.0632 7.81654 16.0632 7.78651 15.8103L7.53481 13.689C7.20979 10.9499 5.05015 8.79021 2.31096 8.4652L0.189649 8.21349C-0.0632164 8.18346 -0.0632164 7.81654 0.189649 7.78651L2.31096 7.53481C5.05015 7.20979 7.20979 5.05015 7.53481 2.31096L7.78651 0.189649Z" fill="white"/>
<path d="M18.3532 10.1304C18.3739 9.95654 18.6261 9.95654 18.6468 10.1304L18.8198 11.5888C19.0433 13.472 20.528 14.9567 22.4112 15.1802L23.8696 15.3532C24.0435 15.3739 24.0435 15.6261 23.8696 15.6468L22.4112 15.8198C20.528 16.0433 19.0433 17.528 18.8198 19.4112L18.6468 20.8696C18.6261 21.0435 18.3739 21.0435 18.3532 20.8696L18.1802 19.4112C17.9567 17.528 16.472 16.0433 14.5888 15.8198L13.1304 15.6468C12.9565 15.6261 12.9565 15.3739 13.1304 15.3532L14.5888 15.1802C16.472 14.9567 17.9567 13.472 18.1802 11.5888L18.3532 10.1304Z" fill="white"/>
</svg>
