<?xml version="1.0" encoding="UTF-8"?>
<svg width="35px" height="34px" viewBox="0 0 35 34" version="1.1" xmlns="http://www.w3.org/2000/svg" xmlns:xlink="http://www.w3.org/1999/xlink">
    <!-- Generator: Sketch 41.2 (35397) - http://www.bohemiancoding.com/sketch -->
    <title>logo</title>
    <desc>Created with Sketch.</desc>
    <defs>
        <ellipse id="path-1" cx="9.5" cy="12" rx="4.5" ry="3"></ellipse>
        <ellipse id="path-3" cx="22.5" cy="12" rx="4.5" ry="3"></ellipse>
    </defs>
    <g id="Welcome" stroke="none" stroke-width="1" fill="none" fill-rule="evenodd">
        <g id="logo">
            <g id="Group" transform="translate(1.000000, 1.000000)">
                <g id="logo">
                    <circle id="Oval" stroke="#000000" stroke-width="2" cx="16" cy="16" r="16"></circle>
                    <g id="mouth" transform="translate(8.000000, 18.666667)" stroke="#000000" stroke-width="2" stroke-linecap="round">
                        <path d="M12.3222862,2.11002934 C12.9593537,2.80678385 13.8198986,3.38183369 14.9614106,3.38183369 C16.1325884,3.38183369 16.9391472,2.86588596 17.6556196,2.04850036" id="Oval-4" transform="translate(14.988953, 2.715167) rotate(67.000000) translate(-14.988953, -2.715167) "></path>
                        <path d="M-1.01104709,2.11002934 C-0.373979645,2.80678385 0.486565237,3.38183369 1.62807731,3.38183369 C2.7992551,3.38183369 3.60581389,2.86588596 4.32228624,2.04850036" id="Oval-4" transform="translate(1.655620, 2.715167) scale(-1, 1) rotate(67.000000) translate(-1.655620, -2.715167) "></path>
                        <path d="M3,3.33333333 C4.58754886,5.21562981 6.56989505,6.33333333 9,6.33333333 C10.6758133,6.33333333 12.4927358,5.40859665 14,3.33333333" id="Combined-Shape"></path>
                    </g>
                    <ellipse id="Oval-5" fill="#000000" cx="16" cy="18" rx="2" ry="2"></ellipse>
                </g>
                <mask id="mask-2" fill="white">
                    <use xlink:href="#path-1"></use>
                </mask>
                <use id="Oval-7" stroke="#000000" stroke-width="2" xlink:href="#path-1"></use>
                <circle id="Oval-2" fill="#000000" mask="url(#mask-2)" cx="14" cy="12" r="4"></circle>
                <mask id="mask-4" fill="white">
                    <use xlink:href="#path-3"></use>
                </mask>
                <use id="Oval-7" stroke="#000000" stroke-width="2" xlink:href="#path-3"></use>
                <circle id="Oval-2" fill="#000000" mask="url(#mask-4)" cx="27" cy="12" r="4"></circle>
            </g>
        </g>
    </g>
</svg>